<svg xmlns="http://www.w3.org/2000/svg" xmlns:xlink="http://www.w3.org/1999/xlink" version="1.1" width="1000" height="1000" viewBox="0 0 1000 1000" xml:space="preserve">
<desc>Created with Fabric.js 3.5.0</desc>
<defs>
</defs>
<rect x="0" y="0" width="100%" height="100%" fill="rgba(255,255,255,0)"/>
<g transform="matrix(7.6643 0 0 7.6643 500.0013 500.0013)" id="374521">
<path style="stroke: rgb(0,153,255); stroke-opacity: 0; stroke-width: 5; stroke-dasharray: none; stroke-linecap: butt; stroke-dashoffset: 0; stroke-linejoin: miter; stroke-miterlimit: 4; is-custom-font: none; font-file-url: none; fill: rgb(255,255,255); fill-rule: nonzero; opacity: 1;" vector-effect="non-scaling-stroke" transform=" translate(-67.5, -67.5)" d="M 132.5 67.5 C 132.5 103.399 103.399 132.5 67.5 132.5 C 31.6015 132.5 2.5 103.399 2.5 67.5 C 2.5 31.6015 31.6015 2.5 67.5 2.5 C 103.399 2.5 132.5 31.6015 132.5 67.5 Z" stroke-linecap="round"/>
</g>
<g transform="matrix(1.5395 0 0 1.5395 310.6219 456.3985)" id="697324">
<g style="" vector-effect="non-scaling-stroke">
		<g transform="matrix(1 0 0 1 -450 -450)">
<rect style="stroke: none; stroke-width: 1; stroke-dasharray: none; stroke-linecap: butt; stroke-dashoffset: 0; stroke-linejoin: miter; stroke-miterlimit: 4; is-custom-font: none; font-file-url: none; fill: rgb(132,220,208); fill-rule: nonzero; opacity: 1;" x="-50" y="-50" rx="0" ry="0" width="100" height="100"/>
</g>
		<g transform="matrix(5.248 0 0 5.1322 282.9564 -58.4907)" id="Layer_1">
<path style="stroke: none; stroke-width: 1; stroke-dasharray: none; stroke-linecap: butt; stroke-dashoffset: 0; stroke-linejoin: miter; stroke-miterlimit: 4; is-custom-font: none; font-file-url: none; fill: rgb(176,183,74); fill-rule: nonzero; opacity: 1;" vector-effect="non-scaling-stroke" transform=" translate(-57.4215, -40.6335)" d="M 61.139 31.155 c -1.641 0.905 -3.116 2.12 -4.393 3.688 c -3.584 4.243 -4.388 9.324 -2.468 15.269 c 1.579 -1.149 2.917 -2.542 4.057 -4.208 C 61.304 41.488 62.222 36.58 61.139 31.155" stroke-linecap="round"/>
</g>
		<g transform="matrix(5.248 0 0 5.1322 278.472 -42.6913)" id="Layer_1">
<path style="stroke: none; stroke-width: 1; stroke-dasharray: none; stroke-linecap: butt; stroke-dashoffset: 0; stroke-linejoin: miter; stroke-miterlimit: 4; is-custom-font: none; font-file-url: none; fill: rgb(172,112,50); fill-rule: nonzero; opacity: 1;" vector-effect="non-scaling-stroke" transform=" translate(-56.567, -43.712)" d="M 58.581 38.285 l -0.053 -0.071 c -1.025 0.799 -1.887 1.809 -2.558 3.102 c -1.248 2.435 -1.664 5.078 -1.3 7.894 c 0.496 -0.525 0.94 -1.078 1.356 -1.672 C 57.833 44.859 58.694 41.8 58.581 38.285" stroke-linecap="round"/>
</g>
		<g transform="matrix(5.248 0 0 5.1322 231.2033 -155.0634)" id="Layer_1">
<path style="stroke: none; stroke-width: 1; stroke-dasharray: none; stroke-linecap: butt; stroke-dashoffset: 0; stroke-linejoin: miter; stroke-miterlimit: 4; is-custom-font: none; font-file-url: none; fill: rgb(144,166,72); fill-rule: nonzero; opacity: 1;" vector-effect="non-scaling-stroke" transform=" translate(-47.5603, -21.8165)" d="M 50.42 39.505 c 1.362 -3.516 2.251 -7.133 2.662 -10.851 c 0.917 -9.848 -1.442 -18.025 -7.135 -24.526 c -1.697 3.3 -2.832 6.818 -3.47 10.539 C 40.501 24.997 43.172 33.278 50.42 39.505" stroke-linecap="round"/>
</g>
		<g transform="matrix(5.248 0 0 5.1322 237.2562 -125.7867)" id="Layer_1">
<path style="stroke: none; stroke-width: 1; stroke-dasharray: none; stroke-linecap: butt; stroke-dashoffset: 0; stroke-linejoin: miter; stroke-miterlimit: 4; is-custom-font: none; font-file-url: none; fill: rgb(193,183,91); fill-rule: nonzero; opacity: 1;" vector-effect="non-scaling-stroke" transform=" translate(-48.7134, -27.521)" d="M 50.307 37.694 c 0.336 -1.289 0.581 -2.612 0.719 -3.964 c 0.586 -5.95 -0.521 -11.409 -3.329 -16.316 l -0.142 -0.066 c -0.889 2.362 -1.333 4.87 -1.305 7.475 C 46.278 29.8 47.64 34.079 50.307 37.694" stroke-linecap="round"/>
</g>
		<g transform="matrix(5.248 0 0 5.1322 150.1367 -26.1214)" id="Layer_1">
<path style="stroke: none; stroke-width: 1; stroke-dasharray: none; stroke-linecap: butt; stroke-dashoffset: 0; stroke-linejoin: miter; stroke-miterlimit: 4; is-custom-font: none; font-file-url: none; fill: rgb(150,157,67); fill-rule: nonzero; opacity: 1;" vector-effect="non-scaling-stroke" transform=" translate(-32.113, -46.9406)" d="M 41.2 41.939 c -9.03 -6.437 -18.112 -6.993 -27.309 -1.667 c 2.307 4.206 5.111 7.754 8.388 10.643 c 9.002 8.207 18.363 8.416 28.056 0.591 C 47.64 47.642 44.614 44.479 41.2 41.939" stroke-linecap="round"/>
</g>
		<g transform="matrix(5.248 0 0 5.1322 180.9056 -21.093)" id="Layer_1">
<path style="stroke: none; stroke-width: 1; stroke-dasharray: none; stroke-linecap: butt; stroke-dashoffset: 0; stroke-linejoin: miter; stroke-miterlimit: 4; is-custom-font: none; font-file-url: none; fill: rgb(203,137,62); fill-rule: nonzero; opacity: 1;" vector-effect="non-scaling-stroke" transform=" translate(-37.976, -47.9204)" d="M 48.501 50.738 c -1.083 -1.18 -2.251 -2.222 -3.471 -3.095 c -5.471 -3.934 -11.281 -5.042 -17.441 -3.271 l -0.138 0.173 c 1.835 2.539 4.028 4.489 6.554 5.812 C 38.808 52.79 43.64 52.93 48.501 50.738" stroke-linecap="round"/>
</g>
		<g transform="matrix(5.248 0 0 5.1322 345.6774 43.7298)" id="Layer_1">
<path style="stroke: none; stroke-width: 1; stroke-dasharray: none; stroke-linecap: butt; stroke-dashoffset: 0; stroke-linejoin: miter; stroke-miterlimit: 4; is-custom-font: none; font-file-url: none; fill: rgb(172,112,50); fill-rule: nonzero; opacity: 1;" vector-effect="non-scaling-stroke" transform=" translate(-69.3729, -60.551)" d="M 81.114 27.746 c -4.198 4.974 -8.17 10.191 -11.92 15.652 c -4.222 6.087 -7.275 12.94 -9.167 20.63 c -1.92 7.795 -2.667 15.794 -2.308 23.967 c 0.086 1.775 0.166 3.584 0.279 5.361 h 2.17 c -0.416 -7.033 -0.113 -13.988 0.913 -20.877 c 1.14 -7.479 3.253 -14.538 6.307 -21.112 C 71.304 42.876 75.856 35.016 81.114 27.746" stroke-linecap="round"/>
</g>
		<g transform="matrix(5.248 0 0 5.1322 220.8035 18.9849)" id="Layer_1">
<path style="stroke: none; stroke-width: 1; stroke-dasharray: none; stroke-linecap: butt; stroke-dashoffset: 0; stroke-linejoin: miter; stroke-miterlimit: 4; is-custom-font: none; font-file-url: none; fill: rgb(172,112,50); fill-rule: nonzero; opacity: 1;" vector-effect="non-scaling-stroke" transform=" translate(-45.5785, -55.7295)" d="M 58.392 70.187 c -0.809 -6.298 -2.251 -12.387 -4.393 -18.3 c -2.193 -6.087 -5.049 -11.548 -8.609 -16.42 C 41.03 29.488 36.558 23.675 32 18.072 l 12.312 19.376 c 3.801 6.508 6.657 13.566 8.576 21.19 c 1.925 7.513 2.998 15.2 3.253 23.025 c 0.138 3.932 0.085 7.865 -0.108 11.724 h 2.496 C 59.417 85.631 59.356 77.87 58.392 70.187" stroke-linecap="round"/>
</g>
		<g transform="matrix(1 0 0 1 49.66 160.9659)" id="995549">
<path style="stroke: none; stroke-width: 1; stroke-dasharray: none; stroke-linecap: butt; stroke-dashoffset: 0; stroke-linejoin: miter; stroke-miterlimit: 4; is-custom-font: none; font-file-url: none; fill: rgb(176,183,74); fill-rule: nonzero; opacity: 1;" transform=" translate(-15.6, 5.92)" d="M -145.87 26.89 L -145.87 26.89 Q -140.18 26.89 -135.97 25.86 Q -131.75 24.83 -127.93 23.02 L -127.93 23.02 L -127.93 6.58 L -139.25 6.58 Q -140.87 6.58 -141.81 5.67 Q -142.75 4.77 -142.75 3.45 L -142.75 3.45 L -142.75 -6.05 L -112.68 -6.05 L -112.68 30.52 Q -116.12 33.02 -119.84 34.86 Q -123.56 36.7 -127.78 37.89 Q -132 39.08 -136.81 39.67 Q -141.62 40.27 -147.18 40.27 L -147.18 40.27 Q -157.06 40.27 -165.37 36.83 Q -173.68 33.39 -179.75 27.27 Q -185.81 21.14 -189.22 12.64 Q -192.62 4.14 -192.62 -5.92 L -192.62 -5.92 Q -192.62 -16.11 -189.31 -24.61 Q -186 -33.11 -179.9 -39.23 Q -173.81 -45.36 -165.12 -48.73 Q -156.43 -52.11 -145.62 -52.11 L -145.62 -52.11 Q -134.56 -52.11 -126.47 -48.83 Q -118.37 -45.55 -112.75 -40.3 L -112.75 -40.3 L -117.62 -32.67 Q -119.06 -30.36 -121.43 -30.36 L -121.43 -30.36 Q -122.93 -30.36 -124.5 -31.36 L -124.5 -31.36 Q -126.5 -32.55 -128.59 -33.73 Q -130.68 -34.92 -133.22 -35.8 Q -135.75 -36.67 -138.9 -37.23 Q -142.06 -37.8 -146.18 -37.8 L -146.18 -37.8 Q -152.87 -37.8 -158.28 -35.55 Q -163.68 -33.3 -167.5 -29.11 Q -171.31 -24.92 -173.37 -19.05 Q -175.43 -13.17 -175.43 -5.92 L -175.43 -5.92 Q -175.43 1.89 -173.25 7.99 Q -171.06 14.08 -167.12 18.27 Q -163.18 22.45 -157.75 24.67 Q -152.31 26.89 -145.87 26.89 Z M -82.43 39.27 L -97.87 39.27 L -97.87 -24.86 L -88.81 -24.86 Q -86.43 -24.86 -85.5 -23.98 Q -84.56 -23.11 -84.25 -20.98 L -84.25 -20.98 L -83.31 -13.23 Q -79.87 -19.17 -75.25 -22.61 Q -70.62 -26.05 -64.87 -26.05 L -64.87 -26.05 Q -60.12 -26.05 -57 -23.86 L -57 -23.86 L -59 -12.3 Q -59.18 -11.17 -59.81 -10.7 Q -60.43 -10.23 -61.5 -10.23 L -61.5 -10.23 Q -62.43 -10.23 -64.06 -10.67 Q -65.68 -11.11 -68.37 -11.11 L -68.37 -11.11 Q -73.18 -11.11 -76.62 -8.45 Q -80.06 -5.8 -82.43 -0.67 L -82.43 -0.67 L -82.43 39.27 Z M -20.31 -25.86 L -20.31 -25.86 Q -14.25 -25.86 -9.15 -23.92 Q -4.06 -21.98 -0.37 -18.26 Q 3.32 -14.55 5.38 -9.14 Q 7.44 -3.73 7.44 3.2 L 7.44 3.2 Q 7.44 4.95 7.28 6.11 Q 7.13 7.27 6.72 7.92 Q 6.32 8.58 5.63 8.86 Q 4.94 9.14 3.88 9.14 L 3.88 9.14 L -35.75 9.14 Q -35.06 19.02 -30.43 23.64 Q -25.81 28.27 -18.18 28.27 L -18.18 28.27 Q -14.43 28.27 -11.72 27.39 Q -9 26.52 -6.97 25.45 Q -4.93 24.39 -3.4 23.52 Q -1.87 22.64 -0.43 22.64 L -0.43 22.64 Q 0.5 22.64 1.19 23.02 Q 1.88 23.39 2.38 24.08 L 2.38 24.08 L 6.88 29.7 Q 4.32 32.7 1.13 34.74 Q -2.06 36.77 -5.53 37.99 Q -9 39.2 -12.59 39.7 Q -16.18 40.2 -19.56 40.2 L -19.56 40.2 Q -26.25 40.2 -32 37.99 Q -37.75 35.77 -42 31.42 Q -46.25 27.08 -48.68 20.67 Q -51.12 14.27 -51.12 5.83 L -51.12 5.83 Q -51.12 -0.73 -49 -6.51 Q -46.87 -12.3 -42.9 -16.58 Q -38.93 -20.86 -33.22 -23.36 Q -27.5 -25.86 -20.31 -25.86 Z M -20 -14.8 L -20 -14.8 Q -26.75 -14.8 -30.56 -10.98 Q -34.37 -7.17 -35.43 -0.17 L -35.43 -0.17 L -6.43 -0.17 Q -6.43 -3.17 -7.25 -5.83 Q -8.06 -8.48 -9.75 -10.48 Q -11.43 -12.48 -14 -13.64 Q -16.56 -14.8 -20 -14.8 Z M 46.5 -25.86 L 46.5 -25.86 Q 52.57 -25.86 57.66 -23.92 Q 62.75 -21.98 66.44 -18.26 Q 70.13 -14.55 72.19 -9.14 Q 74.25 -3.73 74.25 3.2 L 74.25 3.2 Q 74.25 4.95 74.1 6.11 Q 73.94 7.27 73.53 7.92 Q 73.13 8.58 72.44 8.86 Q 71.75 9.14 70.69 9.14 L 70.69 9.14 L 31.07 9.14 Q 31.75 19.02 36.38 23.64 Q 41 28.27 48.63 28.27 L 48.63 28.27 Q 52.38 28.27 55.1 27.39 Q 57.82 26.52 59.85 25.45 Q 61.88 24.39 63.41 23.52 Q 64.94 22.64 66.38 22.64 L 66.38 22.64 Q 67.32 22.64 68 23.02 Q 68.69 23.39 69.19 24.08 L 69.19 24.08 L 73.69 29.7 Q 71.13 32.7 67.94 34.74 Q 64.75 36.77 61.28 37.99 Q 57.82 39.2 54.22 39.7 Q 50.63 40.2 47.25 40.2 L 47.25 40.2 Q 40.57 40.2 34.82 37.99 Q 29.07 35.77 24.82 31.42 Q 20.57 27.08 18.13 20.67 Q 15.69 14.27 15.69 5.83 L 15.69 5.83 Q 15.69 -0.73 17.82 -6.51 Q 19.94 -12.3 23.91 -16.58 Q 27.88 -20.86 33.6 -23.36 Q 39.32 -25.86 46.5 -25.86 Z M 46.82 -14.8 L 46.82 -14.8 Q 40.07 -14.8 36.25 -10.98 Q 32.44 -7.17 31.38 -0.17 L 31.38 -0.17 L 60.38 -0.17 Q 60.38 -3.17 59.57 -5.83 Q 58.75 -8.48 57.07 -10.48 Q 55.38 -12.48 52.82 -13.64 Q 50.25 -14.8 46.82 -14.8 Z M 102.25 39.27 L 86.82 39.27 L 86.82 -24.86 L 96.25 -24.86 Q 99.25 -24.86 100.19 -22.05 L 100.19 -22.05 L 101.25 -16.98 Q 103.19 -18.98 105.35 -20.61 Q 107.5 -22.23 109.91 -23.42 Q 112.32 -24.61 115.07 -25.23 Q 117.82 -25.86 121.07 -25.86 L 121.07 -25.86 Q 126.32 -25.86 130.38 -24.08 Q 134.44 -22.3 137.16 -19.08 Q 139.88 -15.86 141.28 -11.39 Q 142.69 -6.92 142.69 -1.55 L 142.69 -1.55 L 142.69 39.27 L 127.25 39.27 L 127.25 -1.55 Q 127.25 -7.42 124.53 -10.64 Q 121.82 -13.86 116.38 -13.86 L 116.38 -13.86 Q 112.38 -13.86 108.88 -12.05 Q 105.38 -10.23 102.25 -7.11 L 102.25 -7.11 L 102.25 39.27 Z M 188.75 7.45 L 176.13 7.45 L 176.13 39.27 L 159.32 39.27 L 159.32 -51.11 L 188.75 -51.11 Q 197.82 -51.11 204.44 -48.98 Q 211.07 -46.86 215.38 -43.05 Q 219.69 -39.23 221.75 -33.92 Q 223.82 -28.61 223.82 -22.3 L 223.82 -22.3 Q 223.82 -15.73 221.63 -10.26 Q 219.44 -4.8 215.07 -0.86 Q 210.69 3.08 204.13 5.27 Q 197.57 7.45 188.75 7.45 L 188.75 7.45 Z M 176.13 -38.11 L 176.13 -5.67 L 188.75 -5.67 Q 193.38 -5.67 196.82 -6.83 Q 200.25 -7.98 202.5 -10.14 Q 204.75 -12.3 205.88 -15.39 Q 207 -18.48 207 -22.3 L 207 -22.3 Q 207 -25.92 205.88 -28.86 Q 204.75 -31.8 202.5 -33.86 Q 200.25 -35.92 196.82 -37.01 Q 193.38 -38.11 188.75 -38.11 L 188.75 -38.11 L 176.13 -38.11 Z" stroke-linecap="round"/>
</g>
</g>
</g>
</svg>